<?xml version="1.0" encoding="UTF-8"?>
<!DOCTYPE svg PUBLIC "-//W3C//DTD SVG 1.1//EN" "http://www.w3.org/Graphics/SVG/1.1/DTD/svg11.dtd">
<svg xmlns="http://www.w3.org/2000/svg" version="1.1" width="700px" height="113px" style="shape-rendering:geometricPrecision; text-rendering:geometricPrecision; image-rendering:optimizeQuality; fill-rule:evenodd; clip-rule:evenodd" xmlns:xlink="http://www.w3.org/1999/xlink">
<g><path style="opacity:0.68" fill="#1fa1ff" d="M 58.5,3.5 C 61.9571,3.66721 62.2904,4.66721 59.5,6.5C 58.6143,5.67504 58.281,4.67504 58.5,3.5 Z"/></g>
<g><path style="opacity:0.798" fill="#20a1ff" d="M 136.5,5.5 C 137.675,5.28099 138.675,5.61432 139.5,6.5C 137.948,7.79789 136.948,7.46455 136.5,5.5 Z"/></g>
<g><path style="opacity:0.946" fill="#6656ff" d="M 103.5,20.5 C 100.752,20.4017 100.086,21.4017 101.5,23.5C 97.1938,28.4729 92.5271,33.1396 87.5,37.5C 84.0562,33.9392 80.0562,31.1058 75.5,29C 74.4829,27.9505 74.3162,26.7839 75,25.5C 83.0285,21.3035 89.1952,15.3035 93.5,7.5C 94.4419,7.60816 95.2753,7.94149 96,8.5C 97.7473,12.9999 100.247,16.9999 103.5,20.5 Z"/></g>
<g><path style="opacity:0.901" fill="#209bff" d="M 112.5,25.5 C 111.448,25.3505 110.448,25.5172 109.5,26C 106.806,30.8516 105.306,30.3516 105,24.5C 103.989,23.6634 102.822,23.33 101.5,23.5C 100.086,21.4017 100.752,20.4017 103.5,20.5C 105.727,19.5994 106.727,17.9328 106.5,15.5C 107.5,15.5 108.5,15.5 109.5,15.5C 109.343,16.8734 109.51,18.2068 110,19.5C 111.946,20.747 113.78,22.0803 115.5,23.5C 114.995,24.9185 113.995,25.5852 112.5,25.5 Z"/></g>
<g><path style="opacity:0.874" fill="#736dff" d="M 55.5,25.5 C 42.4682,37.5312 30.1349,50.1979 18.5,63.5C 13.6819,62.6972 12.3486,60.0305 14.5,55.5C 16.5266,54.4867 18.5266,53.4867 20.5,52.5C 21.7777,52.2178 22.7777,51.5511 23.5,50.5C 24.5,50.1667 25.1667,49.5 25.5,48.5C 26.1667,48.5 26.5,48.1667 26.5,47.5C 30.4023,45.1074 33.9023,42.1074 37,38.5C 41.0829,32.6695 44.9162,26.6695 48.5,20.5C 49.8333,19.1667 51.1667,19.1667 52.5,20.5C 53.7629,22.0287 54.7629,23.6954 55.5,25.5 Z"/></g>
<g><path style="opacity:0.813" fill="#1d9fff" d="M 30.5,20.5 C 33.1662,20.0658 34.3329,21.0658 34,23.5C 30.4034,25.0661 29.2368,24.0661 30.5,20.5 Z"/></g>
<g><path style="opacity:0.881" fill="#614dff" d="M 648.5,20.5 C 650.766,20.1412 652.599,20.8078 654,22.5C 661.275,42.3243 668.941,61.991 677,81.5C 678.995,83.747 681.495,84.747 684.5,84.5C 684.5,86.1667 684.5,87.8333 684.5,89.5C 674.5,89.5 664.5,89.5 654.5,89.5C 654.5,87.8333 654.5,86.1667 654.5,84.5C 657.056,84.8678 659.056,84.0345 660.5,82C 659,77.5 657.5,73 656,68.5C 649.582,67.3567 643.082,67.19 636.5,68C 633.677,72.4611 632.511,77.2944 633,82.5C 635.228,84.1134 637.728,84.78 640.5,84.5C 640.5,86.1667 640.5,87.8333 640.5,89.5C 631.833,89.5 623.167,89.5 614.5,89.5C 614.5,87.8333 614.5,86.1667 614.5,84.5C 617.939,84.4113 620.772,83.0779 623,80.5C 631.281,60.2863 639.781,40.2863 648.5,20.5 Z M 645.5,42.5 C 648.438,48.4592 651.105,54.6258 653.5,61C 648.5,61.6667 643.5,61.6667 638.5,61C 641.13,54.9431 643.463,48.7765 645.5,42.5 Z"/></g>
<g><path style="opacity:0.92" fill="#614dff" d="M 148.5,22.5 C 161.837,22.3334 175.171,22.5001 188.5,23C 202.526,26.5416 207.692,35.3749 204,49.5C 196.887,61.6302 186.387,65.9635 172.5,62.5C 172.334,68.5092 172.501,74.5092 173,80.5C 173.374,81.4162 173.874,82.2496 174.5,83C 177.117,83.8215 179.784,84.3215 182.5,84.5C 182.5,86.1667 182.5,87.8333 182.5,89.5C 171.167,89.5 159.833,89.5 148.5,89.5C 148.5,87.8333 148.5,86.1667 148.5,84.5C 152.768,84.9402 155.601,83.2736 157,79.5C 157.667,63.5 157.667,47.5 157,31.5C 156.691,30.2341 156.191,29.0674 155.5,28C 153.187,27.338 150.854,26.838 148.5,26.5C 148.5,25.1667 148.5,23.8333 148.5,22.5 Z M 174.5,26.5 C 184.206,26.3711 189.206,31.2044 189.5,41C 189.774,50.0393 185.608,55.5393 177,57.5C 175.774,57.3552 174.607,57.0219 173.5,56.5C 173.167,51.6667 172.833,46.8333 172.5,42C 172.553,36.587 173.22,31.4203 174.5,26.5 Z"/></g>
<g><path style="opacity:0.898" fill="#614dff" d="M 232.5,22.5 C 243.167,22.5 253.833,22.5 264.5,22.5C 264.762,23.9778 264.429,25.3112 263.5,26.5C 261.051,26.98 258.885,27.98 257,29.5C 256.333,46.8333 256.333,64.1667 257,81.5C 259.126,83.3766 261.626,84.3766 264.5,84.5C 264.5,86.1667 264.5,87.8333 264.5,89.5C 253.833,89.5 243.167,89.5 232.5,89.5C 232.5,87.8333 232.5,86.1667 232.5,84.5C 235.695,85.0393 238.195,84.0393 240,81.5C 240.667,64.1667 240.667,46.8333 240,29.5C 237.874,27.6234 235.374,26.6234 232.5,26.5C 232.5,25.1667 232.5,23.8333 232.5,22.5 Z"/></g>
<g><path style="opacity:0.894" fill="#614dff" d="M 286.5,22.5 C 297.5,22.5 308.5,22.5 319.5,22.5C 319.838,26.1507 318.172,27.8174 314.5,27.5C 316.197,33.8968 319.197,39.5635 323.5,44.5C 327.386,40.1027 330.719,35.2693 333.5,30C 331.559,28.0972 329.226,27.2639 326.5,27.5C 326.5,25.8333 326.5,24.1667 326.5,22.5C 335.167,22.5 343.833,22.5 352.5,22.5C 352.762,23.9778 352.429,25.3112 351.5,26.5C 345.732,27.0332 341.232,29.6999 338,34.5C 334.094,39.4036 330.594,44.5703 327.5,50C 333.255,60.0893 339.422,69.9227 346,79.5C 348.697,82.8705 352.197,84.2038 356.5,83.5C 356.5,85.1667 356.5,86.8333 356.5,88.5C 345.252,88.1793 334.085,88.5126 323,89.5C 322.506,87.8659 322.34,86.1992 322.5,84.5C 324.827,84.7529 326.827,84.0863 328.5,82.5C 325.169,75.8341 321.336,69.5008 317,63.5C 312.785,69.4313 308.951,75.598 305.5,82C 306.944,84.0345 308.944,84.8678 311.5,84.5C 311.5,86.1667 311.5,87.8333 311.5,89.5C 302.833,89.5 294.167,89.5 285.5,89.5C 285.5,87.8333 285.5,86.1667 285.5,84.5C 289.599,84.6334 293.266,83.4667 296.5,81C 302.36,73.3065 308.027,65.4731 313.5,57.5C 308.198,48.3681 302.698,39.3681 297,30.5C 294.123,28.4885 290.956,27.1552 287.5,26.5C 286.571,25.3112 286.238,23.9778 286.5,22.5 Z"/></g>
<g><path style="opacity:0.908" fill="#614dff" d="M 377.5,22.5 C 394.167,22.5 410.833,22.5 427.5,22.5C 427.907,28.1613 428.24,33.828 428.5,39.5C 426.5,39.5 424.5,39.5 422.5,39.5C 421.781,35.5619 420.115,32.0619 417.5,29C 412.558,27.6721 407.558,27.3388 402.5,28C 402,28.5 401.5,29 401,29.5C 400.5,37.1594 400.334,44.8261 400.5,52.5C 405.232,52.6224 409.898,52.1224 414.5,51C 416.747,49.005 417.747,46.505 417.5,43.5C 419.167,43.5 420.833,43.5 422.5,43.5C 422.5,51.5 422.5,59.5 422.5,67.5C 420.833,67.5 419.167,67.5 417.5,67.5C 417.377,64.626 416.377,62.126 414.5,60C 409.964,58.6211 405.297,58.1211 400.5,58.5C 400.334,65.8409 400.5,73.1742 401,80.5C 401.318,82.0609 402.151,83.2276 403.5,84C 409.167,84.6667 414.833,84.6667 420.5,84C 424.28,80.2178 427.28,75.8844 429.5,71C 431.107,71.0187 432.774,71.1854 434.5,71.5C 433.64,77.2718 432.307,82.9385 430.5,88.5C 412.179,89.4996 393.845,89.8329 375.5,89.5C 375.5,87.8333 375.5,86.1667 375.5,84.5C 378.93,84.8935 382.096,84.2268 385,82.5C 385.667,64.8333 385.667,47.1667 385,29.5C 382.874,27.6234 380.374,26.6234 377.5,26.5C 377.5,25.1667 377.5,23.8333 377.5,22.5 Z"/></g>
<g><path style="opacity:0.895" fill="#614dff" d="M 460.5,22.5 C 471.5,22.5 482.5,22.5 493.5,22.5C 493.5,23.8333 493.5,25.1667 493.5,26.5C 490.021,26.5974 487.188,27.9308 485,30.5C 484.333,47.5 484.333,64.5 485,81.5C 485.5,82 486,82.5 486.5,83C 494.263,85.0947 500.763,83.2613 506,77.5C 507.833,74.5 509.667,71.5 511.5,68.5C 513.497,68.9858 514.831,70.1525 515.5,72C 513.769,77.757 512.435,83.5904 511.5,89.5C 493.833,89.5 476.167,89.5 458.5,89.5C 458.5,87.8333 458.5,86.1667 458.5,84.5C 460.857,84.6633 463.19,84.4966 465.5,84C 466.667,83.5 467.5,82.6667 468,81.5C 468.667,64.1667 468.667,46.8333 468,29.5C 465.874,27.6234 463.374,26.6234 460.5,26.5C 460.5,25.1667 460.5,23.8333 460.5,22.5 Z"/></g>
<g><path style="opacity:0.895" fill="#614dff" d="M 541.5,22.5 C 552.5,22.5 563.5,22.5 574.5,22.5C 574.5,23.8333 574.5,25.1667 574.5,26.5C 571.021,26.5974 568.188,27.9308 566,30.5C 565.333,47.5 565.333,64.5 566,81.5C 566.5,82 567,82.5 567.5,83C 575.263,85.0947 581.763,83.2613 587,77.5C 588.833,74.5 590.667,71.5 592.5,68.5C 594.497,68.9858 595.831,70.1525 596.5,72C 594.769,77.757 593.435,83.5904 592.5,89.5C 574.833,89.5 557.167,89.5 539.5,89.5C 539.5,87.8333 539.5,86.1667 539.5,84.5C 541.857,84.6633 544.19,84.4966 546.5,84C 547.667,83.5 548.5,82.6667 549,81.5C 549.667,64.1667 549.667,46.8333 549,29.5C 546.874,27.6234 544.374,26.6234 541.5,26.5C 541.5,25.1667 541.5,23.8333 541.5,22.5 Z"/></g>
<g><path style="opacity:0.965" fill="#604cff" d="M 101.5,23.5 C 102.822,23.33 103.989,23.6634 105,24.5C 105.306,30.3516 106.806,30.8516 109.5,26C 110.448,25.5172 111.448,25.3505 112.5,25.5C 112.703,27.3904 112.037,28.8904 110.5,30C 103.103,33.0645 98.1028,38.3978 95.5,46C 93.8876,46.7203 92.3876,46.5536 91,45.5C 90.0789,42.6642 88.9123,39.9976 87.5,37.5C 92.5271,33.1396 97.1938,28.4729 101.5,23.5 Z"/></g>
<g><path style="opacity:0.973" fill="#6e62ff" d="M 55.5,25.5 C 58.0013,30.5064 61.0013,35.1731 64.5,39.5C 52.801,50.1984 41.801,61.5317 31.5,73.5C 27.3083,69.9132 22.975,66.5798 18.5,63.5C 30.1349,50.1979 42.4682,37.5312 55.5,25.5 Z"/></g>
<g><path style="opacity:0.975" fill="#675aff" d="M 64.5,39.5 C 66.5,40.8333 68.1667,42.5 69.5,44.5C 60.6718,52.4951 52.3384,60.9951 44.5,70C 51.5261,68.1024 58.5261,65.7691 65.5,63C 66.8333,62.3333 68.1667,62.3333 69.5,63C 60.4194,67.6026 51.0861,71.6026 41.5,75C 39.4156,75.6972 37.7489,76.8639 36.5,78.5C 36.1667,78.5 35.8333,78.5 35.5,78.5C 35.573,76.9731 34.9063,75.9731 33.5,75.5C 32.8333,74.8333 32.1667,74.1667 31.5,73.5C 41.801,61.5317 52.801,50.1984 64.5,39.5 Z"/></g>
<g><path style="opacity:0.774" fill="#199dff" d="M 26.5,47.5 C 25.8333,47.5 25.5,47.8333 25.5,48.5C 24.1667,48.5 23.5,49.1667 23.5,50.5C 22.7777,51.5511 21.7777,52.2178 20.5,52.5C 19.493,50.478 17.8263,49.1447 15.5,48.5C 17.8934,46.7234 19.5601,44.3901 20.5,41.5C 21.2508,42.376 21.7508,43.376 22,44.5C 24.0263,44.9147 25.5263,45.9147 26.5,47.5 Z"/></g>
<g><path style="opacity:0.089" fill="#199eff" d="M 113.5,52.5 C 111.5,53.5 109.5,54.5 107.5,55.5C 100.677,56.1978 94.0107,57.5312 87.5,59.5C 87.5674,58.0413 87.2341,56.7079 86.5,55.5C 94.6253,53.9753 102.792,52.642 111,51.5C 112.07,51.528 112.903,51.8614 113.5,52.5 Z"/></g>
<g><path style="opacity:0.98" fill="#614eff" d="M 69.5,44.5 C 74.6559,48.9141 80.3225,52.5807 86.5,55.5C 87.2341,56.7079 87.5674,58.0413 87.5,59.5C 87.6309,60.3764 87.2975,61.0431 86.5,61.5C 74.9725,66.6963 65.9725,74.6963 59.5,85.5C 54.7145,87.7618 49.7145,89.4285 44.5,90.5C 42.2256,86.228 39.5589,82.228 36.5,78.5C 37.7489,76.8639 39.4156,75.6972 41.5,75C 51.0861,71.6026 60.4194,67.6026 69.5,63C 68.1667,62.3333 66.8333,62.3333 65.5,63C 58.5261,65.7691 51.5261,68.1024 44.5,70C 52.3384,60.9951 60.6718,52.4951 69.5,44.5 Z"/></g>
<g><path style="opacity:1" fill="#2691ff" d="M 113.5,52.5 C 119.067,51.7532 120.9,54.0866 119,59.5C 112.553,65.6311 105.386,70.6311 97.5,74.5C 94.122,75.0231 91.122,76.3565 88.5,78.5C 77.653,82.8937 66.653,86.8937 55.5,90.5C 52.1461,90.7475 49.1461,91.7475 46.5,93.5C 36.0496,96.6241 25.3829,98.1241 14.5,98C 10.7054,96.9365 9.53878,94.4365 11,90.5C 11.7083,89.6195 12.5416,88.9528 13.5,88.5C 15.7457,87.5448 18.079,86.8782 20.5,86.5C 17.8816,88.4517 15.5482,90.785 13.5,93.5C 14.9905,94.2436 16.4905,94.9103 18,95.5C 26.9077,94.4189 35.741,92.7522 44.5,90.5C 49.7145,89.4285 54.7145,87.7618 59.5,85.5C 70.3859,82.0558 81.0526,78.0558 91.5,73.5C 93.0269,73.573 94.0269,72.9063 94.5,71.5C 102.935,68.0562 110.269,63.0562 116.5,56.5C 113.572,55.5159 110.572,55.1826 107.5,55.5C 109.5,54.5 111.5,53.5 113.5,52.5 Z"/></g>
<g><path style="opacity:0.387" fill="#1b9fff" d="M 12.5,71.5 C 13.8333,71.5 15.1667,71.5 16.5,71.5C 16.5,72.8333 16.5,74.1667 16.5,75.5C 15.1667,75.5 13.8333,75.5 12.5,75.5C 12.5,74.1667 12.5,72.8333 12.5,71.5 Z"/></g>
<g><path style="opacity:1" fill="#475bff" d="M 94.5,71.5 C 94.0269,72.9063 93.0269,73.573 91.5,73.5C 91.9731,72.0937 92.9731,71.427 94.5,71.5 Z"/></g>
<g><path style="opacity:0.088" fill="#199eff" d="M 33.5,75.5 C 34.9063,75.9731 35.573,76.9731 35.5,78.5C 30.3413,80.9121 25.3413,83.5788 20.5,86.5C 18.079,86.8782 15.7457,87.5448 13.5,88.5C 19.4477,83.1844 26.1144,78.8511 33.5,75.5 Z"/></g>
<g><path style="opacity:0.945" fill="#5130ff" d="M 97.5,74.5 C 98.8514,78.5416 101.185,81.8749 104.5,84.5C 99.5603,90.7776 94.2269,96.7776 88.5,102.5C 84.2641,98.0931 79.5974,94.2598 74.5,91C 77.9516,88.1007 81.6183,85.4341 85.5,83C 86.3862,81.3853 87.3862,79.8853 88.5,78.5C 91.122,76.3565 94.122,75.0231 97.5,74.5 Z"/></g>
<g><path style="opacity:0.942" fill="#4b27ff" d="M 104.5,84.5 C 106.67,86.0862 109.004,87.4196 111.5,88.5C 111.5,89.1667 111.833,89.5 112.5,89.5C 112.762,90.9778 112.429,92.3112 111.5,93.5C 104.415,96.9173 99.4148,102.251 96.5,109.5C 94.8333,110.833 93.1667,110.833 91.5,109.5C 90.6805,107.026 89.6805,104.693 88.5,102.5C 94.2269,96.7776 99.5603,90.7776 104.5,84.5 Z"/></g>
<g><path style="opacity:0.8" fill="#219fff" d="M 112.5,89.5 C 111.833,89.5 111.5,89.1667 111.5,88.5C 111.5,87.5 111.5,86.5 111.5,85.5C 112.833,85.5 114.167,85.5 115.5,85.5C 115.912,87.9726 114.912,89.3059 112.5,89.5 Z"/></g>
<g><path style="opacity:0.864" fill="#5b49ff" d="M 55.5,90.5 C 54.914,92.8398 53.914,95.0065 52.5,97C 49.1284,98.1215 47.1284,96.9549 46.5,93.5C 49.1461,91.7475 52.1461,90.7475 55.5,90.5 Z"/></g>
</svg>
